<svg width="378" height="55" viewBox="0 0 378 55" fill="none" xmlns="http://www.w3.org/2000/svg">
<path d="M17.4109 42.0521C13.44 42.0521 10.0991 41.1737 7.38818 39.4167C4.67728 37.6216 2.76817 35.1961 1.6609 32.1406L8.41909 28.1875C9.98453 32.2742 13.0582 34.3177 17.64 34.3177C19.8545 34.3177 21.4773 33.9167 22.5082 33.1146C23.5391 32.3125 24.0545 31.3003 24.0545 30.0781C24.0545 28.6649 23.4245 27.5763 22.1645 26.8125C20.9045 26.0104 18.6518 25.151 15.4064 24.2344C13.6118 23.6997 12.0845 23.1649 10.8245 22.6302C9.60273 22.0955 8.36181 21.3889 7.10181 20.5104C5.88 19.5938 4.94453 18.4479 4.29545 17.0729C3.64637 15.6979 3.32181 14.0938 3.32181 12.2604C3.32181 8.63195 4.6009 5.74826 7.15909 3.60938C9.75544 1.43229 12.8673 0.34375 16.4945 0.34375C19.74 0.34375 22.5845 1.14583 25.0282 2.75C27.5099 4.31597 29.4382 6.51216 30.8127 9.33854L24.1691 13.1771C22.5654 9.73959 20.0073 8.02084 16.4945 8.02084C14.8527 8.02084 13.5545 8.40279 12.6 9.16667C11.6836 9.89237 11.2254 10.8472 11.2254 12.0313C11.2254 13.2917 11.7409 14.3229 12.7718 15.125C13.8409 15.8889 15.8645 16.7292 18.8427 17.6458C20.0645 18.0278 20.9809 18.3333 21.5918 18.5625C22.2409 18.7535 23.0999 19.0781 24.1691 19.5365C25.2763 19.9566 26.1164 20.3576 26.6891 20.7396C27.3001 21.1215 27.9873 21.6372 28.7509 22.2865C29.5145 22.9357 30.0872 23.6042 30.4691 24.2917C30.889 24.9792 31.2326 25.8195 31.5 26.8125C31.8054 27.7674 31.9582 28.8177 31.9582 29.9635C31.9582 33.6685 30.6026 36.6094 27.8918 38.7865C25.219 40.9635 21.7254 42.0521 17.4109 42.0521ZM68.4414 11.8021C71.7249 11.8021 74.3405 12.8715 76.2877 15.0104C78.2733 17.1493 79.2659 20.0139 79.2659 23.6042V41.25H71.8777V24.1198C71.8777 22.401 71.4578 21.0642 70.6177 20.1094C69.7776 19.1545 68.5942 18.6771 67.0668 18.6771C65.3869 18.6771 64.0696 19.2309 63.115 20.3385C62.1986 21.4462 61.7404 23.0503 61.7404 25.151V41.25H54.3523V24.1198C54.3523 22.401 53.9323 21.0642 53.0923 20.1094C52.2522 19.1545 51.0687 18.6771 49.5414 18.6771C47.8995 18.6771 46.5822 19.2309 45.5895 20.3385C44.6349 21.4462 44.1577 23.0503 44.1577 25.151V41.25H36.7695V12.6042H44.1577V15.6406C45.8759 13.0816 48.5295 11.8021 52.1186 11.8021C55.6313 11.8021 58.2278 13.1771 59.9077 15.9271C61.8167 13.1771 64.6614 11.8021 68.4414 11.8021ZM107.305 12.6042H114.693V41.25H107.305V37.8698C105.09 40.6581 101.978 42.0521 97.9691 42.0521C94.1509 42.0521 90.8673 40.6008 88.1182 37.6979C85.4071 34.757 84.0518 31.1667 84.0518 26.9271C84.0518 22.6875 85.4071 19.1163 88.1182 16.2135C90.8673 13.2726 94.1509 11.8021 97.9691 11.8021C101.978 11.8021 105.09 13.1962 107.305 15.9844V12.6042ZM93.6737 32.7708C95.1628 34.2604 97.0528 35.0052 99.3437 35.0052C101.635 35.0052 103.525 34.2604 105.014 32.7708C106.541 31.243 107.305 29.2951 107.305 26.9271C107.305 24.5591 106.541 22.6302 105.014 21.1406C103.525 19.6128 101.635 18.849 99.3437 18.849C97.0528 18.849 95.1628 19.6128 93.6737 21.1406C92.1846 22.6302 91.44 24.5591 91.44 26.9271C91.44 29.2951 92.1846 31.243 93.6737 32.7708ZM128.78 17.5313C129.468 15.6979 130.594 14.3229 132.16 13.4063C133.763 12.4896 135.539 12.0313 137.486 12.0313V20.2813C135.233 20.0139 133.209 20.4722 131.415 21.6563C129.659 22.8403 128.78 24.8073 128.78 27.5573V41.25H121.392V12.6042H128.78V17.5313ZM158.97 19.7083H152.498V31.625C152.498 32.618 152.746 33.3438 153.243 33.8021C153.739 34.2604 154.464 34.5279 155.419 34.6042C156.374 34.6424 157.557 34.6232 158.97 34.5469V41.25C153.892 41.8229 150.303 41.3456 148.203 39.8177C146.141 38.2899 145.11 35.5591 145.11 31.625V19.7083H140.127V12.6042H145.11V6.81771L152.498 4.58334V12.6042H158.97V19.7083Z" fill="black"/>
<path d="M203.228 8.70833H187.192V18.2187H202.77V25.7812H187.192V41.25H179.288V1.14583H203.228V8.70833ZM230.408 12.6042H237.796V41.25H230.408V37.8698C228.193 40.6581 225.081 42.0521 221.072 42.0521C217.254 42.0521 213.97 40.6008 211.221 37.6979C208.51 34.757 207.155 31.1667 207.155 26.9271C207.155 22.6875 208.51 19.1163 211.221 16.2135C213.97 13.2726 217.254 11.8021 221.072 11.8021C225.081 11.8021 228.193 13.1962 230.408 15.9844V12.6042ZM216.776 32.7708C218.265 34.2604 220.155 35.0052 222.446 35.0052C224.737 35.0052 226.627 34.2604 228.116 32.7708C229.643 31.243 230.408 29.2951 230.408 26.9271C230.408 24.5591 229.643 22.6302 228.116 21.1406C226.627 19.6128 224.737 18.849 222.446 18.849C220.155 18.849 218.265 19.6128 216.776 21.1406C215.287 22.6302 214.543 24.5591 214.543 26.9271C214.543 29.2951 215.287 31.243 216.776 32.7708ZM258.126 42.0521C253.812 42.0521 250.204 40.6008 247.301 37.6979C244.438 34.7951 243.006 31.2049 243.006 26.9271C243.006 22.6493 244.438 19.059 247.301 16.1562C250.204 13.2535 253.812 11.8021 258.126 11.8021C260.914 11.8021 263.452 12.4705 265.743 13.8073C268.034 15.1441 269.771 16.9392 270.955 19.1927L264.598 22.9167C264.025 21.7326 263.148 20.7969 261.963 20.1094C260.818 19.4219 259.519 19.0781 258.069 19.0781C255.853 19.0781 254.021 19.8229 252.57 21.3125C251.12 22.7639 250.394 24.6354 250.394 26.9271C250.394 29.1805 251.12 31.0521 252.57 32.5417C254.021 33.993 255.853 34.7187 258.069 34.7187C259.558 34.7187 260.875 34.394 262.02 33.7448C263.205 33.0573 264.082 32.1216 264.655 30.9375L271.07 34.6042C269.81 36.8576 268.034 38.6719 265.743 40.0469C263.452 41.3836 260.914 42.0521 258.126 42.0521ZM291.358 19.7083H284.886V31.625C284.886 32.618 285.133 33.3437 285.631 33.8021C286.125 34.2604 286.852 34.5278 287.807 34.6042C288.76 34.6424 289.944 34.6232 291.358 34.5469V41.25C286.279 41.8229 282.689 41.3456 280.591 39.8177C278.529 38.2899 277.498 35.5591 277.498 31.625V19.7083H272.515V12.6042H277.498V6.8177L284.886 4.58333V12.6042H291.358V19.7083ZM320.07 37.6979C317.131 40.6008 313.541 42.0521 309.303 42.0521C305.064 42.0521 301.474 40.6008 298.535 37.6979C295.633 34.757 294.183 31.1667 294.183 26.9271C294.183 22.6875 295.633 19.1163 298.535 16.2135C301.474 13.2726 305.064 11.8021 309.303 11.8021C313.541 11.8021 317.131 13.2726 320.07 16.2135C323.009 19.1163 324.48 22.6875 324.48 26.9271C324.48 31.1667 323.009 34.757 320.07 37.6979ZM303.747 32.599C305.236 34.0885 307.087 34.8333 309.303 34.8333C311.518 34.8333 313.369 34.0885 314.858 32.599C316.347 31.1094 317.092 29.2187 317.092 26.9271C317.092 24.6354 316.347 22.7448 314.858 21.2552C313.369 19.7656 311.518 19.0208 309.303 19.0208C307.087 19.0208 305.236 19.7656 303.747 21.2552C302.297 22.7448 301.571 24.6354 301.571 26.9271C301.571 29.2187 302.297 31.1094 303.747 32.599ZM337.066 17.5312C337.753 15.6979 338.878 14.3229 340.445 13.4062C342.049 12.4896 343.824 12.0312 345.772 12.0312V20.2812C343.517 20.0139 341.494 20.4722 339.701 21.6562C337.943 22.8403 337.066 24.8073 337.066 27.5573V41.25H329.678V12.6042H337.066V17.5312ZM369.377 12.6042H377.281L366.857 41.25C365.368 45.375 363.384 48.3542 360.901 50.1875C358.459 52.0591 355.402 52.8992 351.737 52.7083V45.8333C353.723 45.8716 355.288 45.4513 356.433 44.5729C357.618 43.6945 358.552 42.2812 359.24 40.3333L347.499 12.6042H355.574L363.02 31.8542L369.377 12.6042Z" fill="#1F3BB3"/>
</svg>
